<?xml version="1.0" encoding="iso-8859-1"?>
<!-- Generator: Adobe Illustrator 19.0.0, SVG Export Plug-In . SVG Version: 6.00 Build 0)  -->
<svg version="1.1" id="Capa_1" xmlns="http://www.w3.org/2000/svg" xmlns:xlink="http://www.w3.org/1999/xlink" x="0px" y="0px"
	 viewBox="0 0 512 512" style="enable-background:new 0 0 512 512;" xml:space="preserve">
<g>
	<g>
		<path d="M445.071,160.819h-11.238v-1.382c0-72.524-59.004-131.528-131.528-131.528c-43.426,0-81.997,21.16-105.964,53.705
			c-10.509-4.53-21.857-6.889-33.462-6.889c-15.963,0-30.905,4.443-43.665,12.15L105.874,0L76.222,4.554l16.501,107.455
			c-2.931,4.322-5.462,8.933-7.566,13.772L65.844,0L36.191,4.553l26.09,169.908L13.405,317.985l28.397,9.671l30.327-89.055
			L114.112,512h283.774l41.982-273.401l30.328,89.057l28.399-9.671L445.071,160.819z M200.776,159.437
			c0-1.022,0.02-2.042,0.05-3.062c0.008-0.272,0.021-0.543,0.031-0.815c0.03-0.788,0.068-1.575,0.116-2.361
			c0.015-0.252,0.031-0.505,0.048-0.757c0.067-0.966,0.143-1.93,0.237-2.893c0.004-0.037,0.006-0.075,0.01-0.113
			c0.212-2.147,0.493-4.284,0.84-6.408c0.017-0.107,0.035-0.213,0.053-0.32c0.165-0.994,0.345-1.985,0.539-2.973
			c0.011-0.055,0.021-0.11,0.032-0.165c0.405-2.037,0.876-4.059,1.404-6.066c0.077-0.291,0.156-0.58,0.236-0.869
			c0.172-0.631,0.353-1.26,0.537-1.888c0.12-0.408,0.239-0.816,0.364-1.222c0.129-0.419,0.267-0.836,0.401-1.254
			c13.187-40.783,51.516-70.363,96.631-70.363c55.983,0,101.529,45.545,101.529,101.529v1.382h-16.816v-1.382
			c0-46.711-38.002-84.713-84.713-84.713c-46.71,0-84.712,38.002-84.712,84.713v1.382h-16.817V159.437z M302.306,121.539
			c-20.896,0-37.896,17.001-37.896,37.897v1.382h-16.816v-1.382c0-30.169,24.544-54.714,54.713-54.714
			c30.169,0,54.714,24.544,54.714,54.714v1.382h-0.002h-16.817v-1.382C340.202,138.54,323.201,121.539,302.306,121.539z
			 M310.2,160.819h-15.794v-1.382c0-4.355,3.543-7.898,7.897-7.898c4.354,0,7.897,3.543,7.897,7.898V160.819z M191.084,250.472
			h129.831v29.999H191.084V250.472z M108.168,159.437c-0.002-30.169,24.542-54.714,54.711-54.714c6.325,0,12.533,1.082,18.394,3.177
			c-0.801,1.884-1.542,3.791-2.254,5.709c-0.135,0.363-0.271,0.727-0.403,1.091c-0.234,0.647-0.464,1.296-0.687,1.947
			c-0.249,0.721-0.489,1.447-0.725,2.174c-0.129,0.398-0.263,0.795-0.389,1.194c-0.391,1.243-0.765,2.494-1.12,3.753
			c-0.508-0.183-1.022-0.355-1.54-0.517c-0.063-0.02-0.127-0.036-0.189-0.055c-0.494-0.151-0.992-0.294-1.494-0.425
			c-0.188-0.049-0.378-0.092-0.568-0.138c-0.382-0.094-0.764-0.184-1.15-0.266c-0.219-0.047-0.44-0.089-0.66-0.131
			c-0.365-0.071-0.731-0.137-1.099-0.197c-0.228-0.037-0.457-0.073-0.686-0.105c-0.372-0.054-0.745-0.1-1.121-0.143
			c-0.224-0.026-0.448-0.052-0.674-0.074c-0.406-0.039-0.814-0.068-1.223-0.093c-0.196-0.012-0.39-0.029-0.586-0.038
			c-0.605-0.029-1.212-0.046-1.824-0.046c-20.896,0-37.896,17.001-37.896,37.897v1.382h-16.817V159.437z M170.777,159.437v1.382
			h-15.795v-1.382c0-4.355,3.542-7.898,7.897-7.898c3.809,0,6.999,2.713,7.737,6.308
			C170.721,158.361,170.777,158.892,170.777,159.437z M348.16,332.817H163.84L82.031,209.528l6.372-18.71h17.217l74.318,112h152.125
			l74.316-112h17.218l6.372,18.71L348.16,332.817z"/>
	</g>
</g>
<g>
</g>
<g>
</g>
<g>
</g>
<g>
</g>
<g>
</g>
<g>
</g>
<g>
</g>
<g>
</g>
<g>
</g>
<g>
</g>
<g>
</g>
<g>
</g>
<g>
</g>
<g>
</g>
<g>
</g>
</svg>
